<mxfile host="app.diagrams.net" modified="2024-03-27T21:37:45.715Z" agent="Mozilla/5.0 (Windows NT 10.0; Win64; x64) AppleWebKit/537.36 (KHTML, like Gecko) Chrome/122.0.0.0 Safari/537.36 OPR/108.0.0.0" version="24.2.0" etag="vLkiYd6EWfZOwIjBiTEw" type="github">
  <diagram name="PÃ¡gina-1" id="rvrQHbGIjsf6pQ6dEpKh">
    <mxGraphModel>
      <root>
        <mxCell id="0" />
        <mxCell id="1" parent="0" />
        <mxCell id="2" value="Engineering" style="rounded=1;absoluteArcSize=1;arcSize=14;whiteSpace=wrap;strokeWidth=2;" vertex="1" parent="1">
          <mxGeometry x="638" width="99" height="34" as="geometry" />
        </mxCell>
        <mxCell id="3" value="Civil Engineering" style="rounded=1;absoluteArcSize=1;arcSize=14;whiteSpace=wrap;strokeWidth=2;" vertex="1" parent="1">
          <mxGeometry x="140" y="84" width="135" height="34" as="geometry" />
        </mxCell>
        <mxCell id="4" value="Mechanical Engineering" style="rounded=1;absoluteArcSize=1;arcSize=14;whiteSpace=wrap;strokeWidth=2;" vertex="1" parent="1">
          <mxGeometry x="595" y="84" width="184" height="34" as="geometry" />
        </mxCell>
        <mxCell id="5" value="Electrical Engineering" style="rounded=1;absoluteArcSize=1;arcSize=14;whiteSpace=wrap;strokeWidth=2;" vertex="1" parent="1">
          <mxGeometry x="1042" y="84" width="172" height="34" as="geometry" />
        </mxCell>
        <mxCell id="6" value="Structural Engineering" style="rounded=1;absoluteArcSize=1;arcSize=14;whiteSpace=wrap;strokeWidth=2;" vertex="1" parent="1">
          <mxGeometry y="168" width="175" height="34" as="geometry" />
        </mxCell>
        <mxCell id="7" value="Environmental Engineering" style="rounded=1;absoluteArcSize=1;arcSize=14;whiteSpace=wrap;strokeWidth=2;" vertex="1" parent="1">
          <mxGeometry x="225" y="168" width="207" height="34" as="geometry" />
        </mxCell>
        <mxCell id="8" value="Aerospace Engineering" style="rounded=1;absoluteArcSize=1;arcSize=14;whiteSpace=wrap;strokeWidth=2;" vertex="1" parent="1">
          <mxGeometry x="482" y="168" width="178" height="34" as="geometry" />
        </mxCell>
        <mxCell id="9" value="Automotive Engineering" style="rounded=1;absoluteArcSize=1;arcSize=14;whiteSpace=wrap;strokeWidth=2;" vertex="1" parent="1">
          <mxGeometry x="710" y="168" width="187" height="34" as="geometry" />
        </mxCell>
        <mxCell id="10" value="Power Engineering" style="rounded=1;absoluteArcSize=1;arcSize=14;whiteSpace=wrap;strokeWidth=2;" vertex="1" parent="1">
          <mxGeometry x="947" y="168" width="147" height="34" as="geometry" />
        </mxCell>
        <mxCell id="11" value="Electronics Engineering" style="rounded=1;absoluteArcSize=1;arcSize=14;whiteSpace=wrap;strokeWidth=2;" vertex="1" parent="1">
          <mxGeometry x="1144" y="168" width="182" height="34" as="geometry" />
        </mxCell>
        <mxCell id="12" value="" style="curved=1;startArrow=none;endArrow=block;exitX=-0.004024621212121212;exitY=0.6271937355689491;entryX=0.502662037037037;entryY=0;" edge="1" parent="1" source="2" target="3">
          <mxGeometry relative="1" as="geometry">
            <Array as="points">
              <mxPoint x="208" y="59" />
            </Array>
          </mxGeometry>
        </mxCell>
        <mxCell id="13" value="" style="curved=1;startArrow=none;endArrow=block;exitX=0.4942392676767677;exitY=1;entryX=0.4996178668478261;entryY=0;" edge="1" parent="1" source="2" target="4">
          <mxGeometry relative="1" as="geometry">
            <Array as="points" />
          </mxGeometry>
        </mxCell>
        <mxCell id="14" value="" style="curved=1;startArrow=none;endArrow=block;exitX=0.9925031565656566;exitY=0.6383149122427276;entryX=0.4969794694767442;entryY=0;" edge="1" parent="1" source="2" target="5">
          <mxGeometry relative="1" as="geometry">
            <Array as="points">
              <mxPoint x="1127" y="59" />
            </Array>
          </mxGeometry>
        </mxCell>
        <mxCell id="15" value="" style="curved=1;startArrow=none;endArrow=block;exitX=0.1415385251322751;exitY=1;entryX=0.4995089285714286;entryY=0;" edge="1" parent="1" source="3" target="6">
          <mxGeometry relative="1" as="geometry">
            <Array as="points">
              <mxPoint x="87" y="143" />
            </Array>
          </mxGeometry>
        </mxCell>
        <mxCell id="16" value="" style="curved=1;startArrow=none;endArrow=block;exitX=0.8637855489417987;exitY=1;entryX=0.499056461352657;entryY=0;" edge="1" parent="1" source="3" target="7">
          <mxGeometry relative="1" as="geometry">
            <Array as="points">
              <mxPoint x="328" y="143" />
            </Array>
          </mxGeometry>
        </mxCell>
        <mxCell id="17" value="" style="curved=1;startArrow=none;endArrow=block;exitX=0.24399505046583878;exitY=1;entryX=0.4984638342696629;entryY=0;" edge="1" parent="1" source="4" target="8">
          <mxGeometry relative="1" as="geometry">
            <Array as="points">
              <mxPoint x="571" y="143" />
            </Array>
          </mxGeometry>
        </mxCell>
        <mxCell id="18" value="" style="curved=1;startArrow=none;endArrow=block;exitX=0.7552406832298134;exitY=1;entryX=0.49803643048128343;entryY=0;" edge="1" parent="1" source="4" target="9">
          <mxGeometry relative="1" as="geometry">
            <Array as="points">
              <mxPoint x="803" y="143" />
            </Array>
          </mxGeometry>
        </mxCell>
        <mxCell id="19" value="" style="curved=1;startArrow=none;endArrow=block;exitX=0.2443801694006094;exitY=1;entryX=0.49755527210884354;entryY=0;" edge="1" parent="1" source="5" target="10">
          <mxGeometry relative="1" as="geometry">
            <Array as="points">
              <mxPoint x="1020" y="143" />
            </Array>
          </mxGeometry>
        </mxCell>
        <mxCell id="20" value="" style="curved=1;startArrow=none;endArrow=block;exitX=0.7495787695528789;exitY=1;entryX=0.49901270604395603;entryY=0;" edge="1" parent="1" source="5" target="11">
          <mxGeometry relative="1" as="geometry">
            <Array as="points">
              <mxPoint x="1235" y="143" />
            </Array>
          </mxGeometry>
        </mxCell>
      </root>
    </mxGraphModel>
  </diagram>
</mxfile>
